<svg xmlns="http://www.w3.org/2000/svg" fill="#fff" viewBox="0 0 100 100"><path d="M50.125 90.104c22.056 0 40-17.944 40-40s-17.944-40-40-40-40 17.944-40 40 17.944 40 40 40zm0-2c-20.645 0-37.485-16.552-37.977-37.081h22.449c.48 8.16 7.25 14.656 15.528 14.656s15.048-6.497 15.528-14.656h22.449C87.61 71.552 70.77 88.104 50.125 88.104zm-13.574-38c0-7.484 6.09-13.574 13.574-13.574s13.574 6.09 13.574 13.574c0 7.485-6.09 13.575-13.574 13.575S36.551 57.59 36.551 50.104zm13.574-38c20.591 0 37.397 16.465 37.973 36.919H65.645c-.559-8.083-7.297-14.493-15.52-14.493s-14.96 6.41-15.52 14.493H12.152c.576-20.453 17.382-36.919 37.973-36.919z" /><path d="M50.125 59.725c5.304 0 9.619-4.315 9.619-9.62 0-5.304-4.315-9.619-9.619-9.619s-9.619 4.315-9.619 9.619c0 5.304 4.315 9.62 9.619 9.62zm0-17.24c4.201 0 7.619 3.418 7.619 7.619 0 4.202-3.418 7.62-7.619 7.62s-7.619-3.418-7.619-7.62c0-4.201 3.418-7.619 7.619-7.619z" /></svg>
